<?xml version="1.0" encoding="iso-8859-1"?>
<!-- Generator: Adobe Illustrator 19.0.0, SVG Export Plug-In . SVG Version: 6.00 Build 0)  -->
<svg version="1.1" id="Capa_1" xmlns="http://www.w3.org/2000/svg" xmlns:xlink="http://www.w3.org/1999/xlink" x="0px" y="0px"
	 viewBox="0 0 496 496" style="enable-background:new 0 0 496 496;" xml:space="preserve">
<g>
	<g>
		<g>
			<path d="M248,144c30.872,0,56-25.12,56-56s-25.128-56-56-56s-56,25.12-56,56S217.128,144,248,144z M256,48.808
				C271.648,52,284,64.352,287.192,80H256V48.808z M256,96h31.192C284,111.648,271.648,124,256,127.192V96z M240,48.808V80h-31.192
				C212,64.352,224.352,52,240,48.808z M240,96v31.192C224.352,124,212,111.648,208.808,96H240z"/>
			<path d="M322.944,132l22-44l-44-88H195.056l-44,88l22,44C155.8,139.464,144,156.608,144,176c0,26.472,21.528,48,48,48v218.424
				L227.72,496h40.56L304,442.424V224c26.472,0,48-21.528,48-48C352,156.608,340.2,139.464,322.944,132z M168.944,88l36-72h86.112
				l36,72l-36,72h-86.112L168.944,88z M256,480h-16V280c0-4.416,3.584-8,8-8s8,3.584,8,8V480z M288,437.576l-16,24V280
				c0-13.232-10.768-24-24-24s-24,10.768-24,24v181.576l-16-24V224h80V437.576z M304,208H192c-17.648,0-32-14.352-32-32
				c0-13.248,8.216-24.976,20.184-29.744L195.056,176h105.888l14.872-29.744C327.784,151.024,336,162.752,336,176
				C336,193.648,321.648,208,304,208z"/>
			<path d="M0,352h16v89.888L43.056,496h25.888L96,441.888V352h16v-48H0V352z M59.056,480h-6.112l-13.776-27.552l38.472-9.616
				L59.056,480z M80,425.76l-48,12v-15.52l48-12V425.76z M80,393.76l-48,12v-15.52l48-12V393.76z M80,361.76l-48,12V352h48V361.76z
				 M16,320h80v16H16V320z"/>
			<path d="M480,358.112L452.944,304h-25.888L400,358.112V448h-16v48h112v-48h-16V358.112z M436.944,320h6.112l16,32h-38.112
				L436.944,320z M416,368h48v16h-48V368z M416,400h48v48h-48V400z M480,480h-80v-16h80V480z"/>
			<path d="M400,78.528V152h16V78.528c9.288-3.312,16-12.112,16-22.528c0-13.232-10.768-24-24-24s-24,10.768-24,24
				C384,66.416,390.712,75.216,400,78.528z M408,48c4.416,0,8,3.592,8,8s-3.584,8-8,8c-4.416,0-8-3.592-8-8S403.584,48,408,48z"/>
			<path d="M480,176V46.528c9.288-3.312,16-12.112,16-22.528c0-13.232-10.768-24-24-24s-24,10.768-24,24
				c0,10.416,6.712,19.216,16,22.528V176c0,4.408-3.584,8-8,8h-88v16h88C469.232,200,480,189.232,480,176z M472,16
				c4.416,0,8,3.592,8,8s-3.584,8-8,8c-4.416,0-8-3.592-8-8S467.584,16,472,16z"/>
			<rect x="432" y="152" width="16" height="16"/>
			<rect x="432" y="120" width="16" height="16"/>
			<rect x="432" y="88" width="16" height="16"/>
			<path d="M96,193.472V120H80v73.472c-9.288,3.312-16,12.112-16,22.528c0,13.232,10.768,24,24,24s24-10.768,24-24
				C112,205.584,105.288,196.784,96,193.472z M88,224c-4.416,0-8-3.592-8-8s3.584-8,8-8s8,3.592,8,8S92.416,224,88,224z"/>
			<path d="M16,96v129.472C6.712,228.784,0,237.584,0,248c0,13.232,10.768,24,24,24s24-10.768,24-24
				c0-10.416-6.712-19.216-16-22.528V96c0-4.408,3.584-8,8-8h96V72H40C26.768,72,16,82.768,16,96z M24,256c-4.416,0-8-3.592-8-8
				c0-4.408,3.584-8,8-8s8,3.592,8,8S28.416,256,24,256z"/>
			<rect x="48" y="104" width="16" height="16"/>
			<rect x="48" y="136" width="16" height="16"/>
			<rect x="48" y="168" width="16" height="16"/>
		</g>
	</g>
</g>
<g>
</g>
<g>
</g>
<g>
</g>
<g>
</g>
<g>
</g>
<g>
</g>
<g>
</g>
<g>
</g>
<g>
</g>
<g>
</g>
<g>
</g>
<g>
</g>
<g>
</g>
<g>
</g>
<g>
</g>
</svg>
