<svg width="80" height="80" viewBox="0 0 80 80" fill="none" xmlns="http://www.w3.org/2000/svg">
<path d="M0 0V18.5987L21.4013 40H19.3548V50.3226H24.0555C24.329 51.1716 24.671 51.9961 25.0748 52.7871L21.7523 56.1097L29.0516 63.4077L32.3742 60.0852C33.1652 60.4903 33.9897 60.831 34.8387 61.1058V65.8064H45.1613V61.1058C46.0103 60.831 46.8348 60.4903 47.6258 60.0852L50.9484 63.4077L58.2477 56.1097L54.9252 52.7871C55.329 51.9961 55.671 51.1716 55.9445 50.3226H60.6452V40H58.5987L80 18.5987V0H0ZM75.5948 2.58065L61.4013 16.7742H18.5987L4.40516 2.58065H75.5948ZM34.8387 24.5161V29.2168C33.9897 29.4903 33.1665 29.8323 32.3742 30.2374L29.0516 26.9148L28.8955 27.071L21.1794 19.3548H58.8206L51.1058 27.0697L50.9484 26.9135L47.6258 30.2361C46.8335 29.831 46.0103 29.4903 45.1613 29.2155V24.5161H34.8387ZM2.58065 17.5303V4.40516L27.0697 28.8942L21.7523 34.2116L25.0748 37.5342C24.7871 38.0968 24.5445 38.68 24.3226 39.271L2.58065 17.5303ZM58.0645 47.7419H53.9768L53.7277 48.7097C53.3961 49.9961 52.8877 51.2232 52.2181 52.3574L51.7084 53.2194L54.5987 56.1097L50.9484 59.7587L48.0581 56.8697L47.1974 57.3781C46.0619 58.049 44.8348 58.5561 43.5484 58.8877L42.5806 59.1381V63.2258H37.4194V59.1381L36.4516 58.8877C35.1652 58.5561 33.9381 58.049 32.8026 57.3781L31.9419 56.8697L29.0516 59.7587L25.4013 56.1097L28.2916 53.2194L27.7819 52.3574C27.1123 51.2232 26.6039 49.9961 26.2723 48.7097L26.0232 47.7419H21.9355V42.5806H26.0232L26.2723 41.6129C26.6039 40.3265 27.1123 39.0994 27.7819 37.9639L28.2903 37.1032L25.4 34.2129L29.0503 30.5626L31.9406 33.4529L32.8013 32.9445C33.9381 32.2735 35.1652 31.7652 36.4503 31.4335L37.4194 31.1845V27.0968H42.5806V31.1845L43.5484 31.4335C44.8335 31.7652 46.0606 32.2735 47.1974 32.9445L48.0581 33.4529L50.9484 30.5626L54.5987 34.2129L51.7084 37.1032L52.2168 37.9639C52.8877 39.0994 53.3948 40.3265 53.7265 41.6129L53.9768 42.5806H58.0645V47.7419ZM77.4194 17.5303L55.6774 39.2723C55.4555 38.68 55.2129 38.0968 54.9252 37.5355L58.2477 34.2129L52.9303 28.8955L77.4194 4.40516V17.5303Z" fill="black"/>
<path d="M6.45161 0C2.89419 0 0 2.89419 0 6.45161C0 10.009 2.89419 12.9032 6.45161 12.9032C10.009 12.9032 12.9032 10.009 12.9032 6.45161C12.9032 2.89419 10.009 0 6.45161 0ZM6.45161 10.3226C4.31742 10.3226 2.58065 8.58581 2.58065 6.45161C2.58065 4.31742 4.31742 2.58065 6.45161 2.58065C8.58581 2.58065 10.3226 4.31742 10.3226 6.45161C10.3226 8.58581 8.58581 10.3226 6.45161 10.3226Z" transform="translate(33.5483 38.7097)" fill="black"/>
<path d="M33.5484 0H0V2.58065H33.5484V0Z" transform="translate(23.2258 11.6129)" fill="black"/>
<path d="M2.58065 0H0V3.87097H2.58065V0Z" transform="translate(70.9678 41.2903)" fill="black"/>
<path d="M3.87097 -2.40203e-06H0V2.58064H3.87097V-2.40203e-06Z" transform="translate(67.696 42.6443) rotate(44.9919)" fill="black"/>
<path d="M3.87097 0H0V2.58065H3.87097V0Z" transform="translate(64.5161 47.7419)" fill="black"/>
<path d="M2.58064 0H0V3.87097H2.58064V0Z" transform="translate(67.7007 55.4164) rotate(-135)" fill="black"/>
<path d="M2.58065 0H0V3.87097H2.58065V0Z" transform="translate(70.9678 52.9032)" fill="black"/>
<path d="M3.87097 0H0V2.58064H3.87097V0Z" transform="translate(76.8171 55.4191) rotate(-135.008)" fill="black"/>
<path d="M3.87097 0H0V2.58065H3.87097V0Z" transform="translate(76.1292 47.7419)" fill="black"/>
<path d="M2.58065 0H0V3.87097H2.58065V0Z" transform="translate(76.8193 42.6501) rotate(45)" fill="black"/>
<path d="M2.58065 0H0V3.87097H2.58065V0Z" transform="translate(14.1936 64.5161)" fill="black"/>
<path d="M3.87097 0H0V2.58065H3.87097V0Z" transform="translate(11.8403 70.4342) rotate(-135.008)" fill="black"/>
<path d="M3.87097 0H0V2.58065H3.87097V0Z" transform="translate(7.74194 70.9678)" fill="black"/>
<path d="M2.58064 0H0V3.87097H2.58064V0Z" transform="translate(10.9197 78.6427) rotate(-135)" fill="black"/>
<path d="M2.58065 0H0V3.87097H2.58065V0Z" transform="translate(14.1936 76.129)" fill="black"/>
<path d="M3.87097 0H0V2.58064H3.87097V0Z" transform="translate(20.0464 78.6492) rotate(-135.008)" fill="black"/>
<path d="M3.87097 0H0V2.58065H3.87097V0Z" transform="translate(19.3547 70.9678)" fill="black"/>
<path d="M2.58065 0H0V3.87097H2.58065V0Z" transform="translate(20.0398 65.8763) rotate(45)" fill="black"/>
<path d="M2.58065 0H0V2.58065H2.58065V0Z" transform="translate(55.4839 67.0968)" fill="black"/>
<path d="M2.58065 0H0V2.58065H2.58065V0Z" transform="translate(55.4839 72.2581)" fill="black"/>
<path d="M2.58065 0H0V2.58065H2.58065V0Z" transform="translate(58.0645 69.6774)" fill="black"/>
<path d="M2.58065 0H0V2.58065H2.58065V0Z" transform="translate(52.9033 69.6774)" fill="black"/>
<path d="M2.58065 0H0V2.58065H2.58065V0Z" transform="translate(11.6128 42.5807)" fill="black"/>
<path d="M2.58065 0H0V2.58065H2.58065V0Z" transform="translate(11.6128 47.7419)" fill="black"/>
<path d="M2.58065 0H0V2.58065H2.58065V0Z" transform="translate(14.1936 45.1613)" fill="black"/>
<path d="M2.58065 0H0V2.58065H2.58065V0Z" transform="translate(9.03223 45.1613)" fill="black"/>
<path d="M2.58065 0H0V2.58065H2.58065V0Z" transform="translate(2.58057 54.1936)" fill="black"/>
<path d="M2.58065 0H0V2.58065H2.58065V0Z" transform="translate(2.58057 59.3549)" fill="black"/>
<path d="M2.58065 0H0V2.58065H2.58065V0Z" transform="translate(5.16138 56.7742)" fill="black"/>
<path d="M2.58065 0H0V2.58065H2.58065V0Z" transform="translate(0 56.7742)" fill="black"/>
<path d="M2.58065 0H0V2.58065H2.58065V0Z" transform="translate(59.3547 11.6129)" fill="black"/>
<path d="M2.58065 0H0V2.58065H2.58065V0Z" transform="translate(18.0645 11.6129)" fill="black"/>
<path d="M0 11.6129C0 12.0981 0.029677 12.5858 0.0903222 13.0632L2.65032 12.7432C2.60516 12.3729 2.58065 11.9961 2.58065 11.6129C2.58065 6.63226 6.63226 2.58065 11.6129 2.58065C13.8155 2.58065 15.9381 3.38323 17.5871 4.83871L19.2942 2.90323C17.1729 1.03097 14.4452 0 11.6129 0C5.21032 0 0 5.21032 0 11.6129Z" transform="translate(28.3872 33.5483)" fill="black"/>
<path d="M1.77199e-07 0.967741C0.423226 2.01419 0.997419 2.99226 1.7071 3.87613L3.72 2.26065C3.16774 1.57291 2.72129 0.811611 2.39226 -1.41759e-06L1.77199e-07 0.967741Z" transform="translate(29.2336 48.551)" fill="black"/>
</svg>
